<?xml version="1.0" encoding="utf-8"?>
<!-- Generator: Adobe Illustrator 27.0.1, SVG Export Plug-In . SVG Version: 6.00 Build 0)  -->
<svg version="1.1" id="Capa_1" xmlns="http://www.w3.org/2000/svg" xmlns:xlink="http://www.w3.org/1999/xlink" x="0px" y="0px"
	 viewBox="0 0 18.2 14.5" style="enable-background:new 0 0 18.2 14.5;" xml:space="preserve">
<style type="text/css">
	.st0{fill:none;stroke:#FFFFFF;stroke-linecap:round;stroke-miterlimit:10;}
</style>
<g>
	<g>
		<path class="st0" d="M12.5,4.1L12.5,4.1c1.7,1.7,1.7,4.6,0,6.3l0,0"/>
		<path class="st0" d="M14.8,0.9L14.8,0.9c3.5,3.5,3.5,9.1,0,12.6l0,0"/>
	</g>
	<path class="st0" d="M8.9,13.1l-5.3-3c-0.1,0-0.1-0.1-0.2-0.1l-2-0.1C1,9.9,0.8,9.7,0.8,9.4V5.1c0-0.3,0.2-0.5,0.5-0.5l2,0
		c0.1,0,0.2,0,0.2-0.1l5.3-3.1c0.3-0.2,0.8,0,0.8,0.4v10.8C9.6,13,9.2,13.3,8.9,13.1z"/>
</g>
</svg>
