<?xml version="1.0" encoding="utf-8"?>
<!-- Generator: Adobe Illustrator 27.0.1, SVG Export Plug-In . SVG Version: 6.00 Build 0)  -->
<svg version="1.1" id="Capa_1" xmlns="http://www.w3.org/2000/svg" xmlns:xlink="http://www.w3.org/1999/xlink" x="0px" y="0px"
	 viewBox="0 0 28 28" style="enable-background:new 0 0 28 28;" xml:space="preserve">
<style type="text/css">
	.st0{fill:none;stroke:#FFFFFF;stroke-width:1.0014;stroke-linecap:round;stroke-miterlimit:10;}
	.st1{opacity:0;fill:none;stroke:#FFFFFF;stroke-width:1.0014;stroke-miterlimit:10;}
</style>
<g>
	<g>
		<g>
			<path class="st0" d="M17.8,10.9L17.8,10.9c1.7,1.7,1.7,4.6,0,6.3l0,0"/>
			<path class="st0" d="M20.1,7.7L20.1,7.7c3.5,3.5,3.5,9.1,0,12.6l0,0"/>
		</g>
		<path class="st0" d="M14.1,19.9l-5.3-3c-0.1,0-0.1-0.1-0.2-0.1l-2-0.1c-0.3,0-0.5-0.2-0.5-0.5v-4.4c0-0.3,0.2-0.5,0.5-0.5l2,0
			c0.1,0,0.2,0,0.2-0.1l5.3-3.1c0.3-0.2,0.8,0,0.8,0.4v10.8C14.9,19.9,14.5,20.1,14.1,19.9z"/>
	</g>
	<rect y="0" class="st1" width="28" height="28"/>
</g>
</svg>
